# xmcd
#
# Track frame offsets:
# 151
# 17975
# 49023
# 63786
# 79698
# 104477
# 126861
# 150050
# 173300
# 200472
# 210686
# 232130
# 256219
# 282524
# 302396
#
# Disc length: 4438 seconds
#
#
# Revision: 0
# Processed by: cddbd v1.5.2PL0 Copyright (c) Steve Scherf et al.
# Submitted via: FreeRIP 2.951 
#
DISCID=be11540f
DTITLE=Paul Kossoff - The Complete Sessions 1968-75 Disc 2
DYEAR=2000
DGENRE=Rock
TTITLE0=Oh How We Danced [Remix]
TTITLE1=Cold Autumn Sunday
TTITLE2=Longer Shadows
TTITLE3=Black Hearted Lady
TTITLE4=We Got Time
TTITLE5=Tricky Dicky Rides Again
TTITLE6=Tricky Dicky Rides Again [Remix]
TTITLE7=I'm Ready
TTITLE8=Molten Gold [Alt]
TTITLE9=Hole In The Head
TTITLE10=You've Taken Hold Of Me
TTITLE11=You And Me
TTITLE12=The Contender
TTITLE13=I Know Why The Sun Don't Shine
TTITLE14=Boy With A Problem
EXTD=
EXTT0=
EXTT1=
EXTT2=
EXTT3=
EXTT4=
EXTT5=
EXTT6=
EXTT7=
EXTT8=
EXTT9=
EXTT10=
EXTT11=
EXTT12=
EXTT13=
EXTT14=
PLAYORDER=
